HIERARCHY
ROOT Hips
{
	OFFSET 0.00000 0.00000 0.00000
	CHANNELS 6 Xposition Yposition Zposition Yrotation Zrotation Xrotation 
	JOINT Lumbar
	{
		OFFSET 0 0 0
		CHANNELS 3 Zrotation Xrotation Yrotation
		JOINT Neck
		{
			OFFSET 0.00 0.2701 0.00
			CHANNELS 3 Zrotation Xrotation Yrotation
			End Site
			{
				OFFSET 0.00 0.1379 0.00
			}
		}
		JOINT RightShoulder
		{
			OFFSET 0.0119 0.2289 0.1181
			CHANNELS 3 Zrotation Xrotation Yrotation
			JOINT RightElbow
			{
				OFFSET 0.00 -0.1475 0.00
				CHANNELS 2 Zrotation Yrotation
				JOINT RightWrist
				{
					OFFSET 0.00 -0.1605 0.00
					CHANNELS 2 Zrotation Xrotation
					End Site
					{
						OFFSET 0.0040 -0.1068 0.0006
					}
				}
			}
		}
		JOINT LeftShoulder
		{
			OFFSET 0.0119 0.2289 -0.1181
			CHANNELS 3 Zrotation Xrotation Yrotation
			JOINT LeftElbow
			{
				OFFSET 0.00 -0.1475 0.00
				CHANNELS 2 Zrotation Yrotation
				JOINT LeftWrist
				{
					OFFSET 0.00 -0.1605 0.00
					CHANNELS 2 Zrotation Xrotation
					End Site
					{
						OFFSET 0.0040 -0.1068 -0.0006
					}
				}
			}
		}
	}
	JOINT RightHip
	{
		OFFSET 0.0316 -0.0424 0.0458
		CHANNELS 3 Zrotation Xrotation Yrotation
		JOINT RightKnee
		{
			OFFSET 0.00 -0.2438 0.00
			CHANNELS 1 Zrotation
			JOINT RightAnkle
			{
				OFFSET 0.00 -0.2449 0.00
				CHANNELS 3 Zrotation Xrotation Yrotation
				End Site
				{
					OFFSET 0.1237 -0.0542 0.0051
				}
			}
		}
	}
	JOINT LeftHip
	{
		OFFSET 0.0316 -0.0424 -0.0458
		CHANNELS 3 Zrotation Xrotation Yrotation
		JOINT LeftKnee
		{
			OFFSET 0.00 -0.2438 0.00
			CHANNELS 1 Zrotation
			JOINT LeftAnkle
			{
				OFFSET 0.00 -0.2449 0.00
				CHANNELS 3 Zrotation Xrotation Yrotation
				End Site
				{
					OFFSET 0.1237 -0.0542 -0.0051
				}
			}
		}
	}
}
MOTION
Frames: 34
Frame Time: 0.02
8e-05 4e-05 2e-05 537.3899 -45.77893 0.81279 57.77079 -0.23014 0.06069 -10.08554 -1.66702 -0.14554 153.88822 -78.84925 -55.01484 12.81273 89.43681 1.92535 -6.26903 169.87549 78.08083 57.55425 11.02547 -76.18125 0.9632 8.41878 50.6673 -0.72812 -0.68853 -18.95 -9.00701 -5.65896 -3.80791 53.39339 2.68455 5.96574 -24.3392 -8.56384 5.14097 3.48551
0.00012 4e-05 6e-05 537.40178 -45.78349 0.81066 57.76543 -0.23827 0.06052 -10.12936 -1.65506 -0.14498 154.03023 -78.84972 -54.90917 12.79929 89.43832 1.96933 -6.26242 169.87542 78.02304 57.82134 10.96763 -76.17538 1.00963 8.36697 50.67167 -0.81282 -1.18862 -18.94959 -8.95316 -5.62433 -3.78409 53.40549 2.69085 6.00374 -24.33941 -8.56012 5.13751 3.48329
0.00017 5e-05 0.0001 537.41363 -45.78803 0.80854 57.76009 -0.24638 0.06036 -10.17314 -1.64312 -0.14443 154.17152 -78.85028 -54.80396 12.78586 89.43981 2.01319 -6.25582 169.8753 77.96547 58.08844 10.90978 -76.16952 1.05604 8.31518 50.67601 -0.89729 -1.68737 -18.94918 -8.89946 -5.5898 -3.76034 53.41754 2.69715 6.04177 -24.33962 -8.55641 5.13405 3.48107
0.00022 5e-05 0.00014 537.42548 -45.79259 0.80641 57.75475 -0.25449 0.06019 -10.21683 -1.6312 -0.14387 154.3132 -78.85074 -54.69856 12.77247 89.44132 2.05703 -6.24923 169.87533 77.90784 58.3549 10.85209 -76.16366 1.10235 8.26352 50.68037 -0.98173 -2.18596 -18.94876 -8.84577 -5.55527 -3.7366 53.4296 2.70343 6.07967 -24.33983 -8.5527 5.1306 3.47885
0.00026 6e-05 0.00018 537.43733 -45.79716 0.80428 57.7494 -0.26261 0.06001 -10.26052 -1.61925 -0.14332 154.45528 -78.85112 -54.59283 12.75907 89.44281 2.101 -6.24264 169.87511 77.85005 58.62088 10.79445 -76.15783 1.14864 8.21185 50.68475 -1.06638 -2.6858 -18.94835 -8.79194 -5.52066 -3.71279 53.44171 2.70969 6.11752 -24.34005 -8.54899 5.12715 3.47664
0.00031 6e-05 0.00022 537.44919 -45.80163 0.80216 57.74406 -0.2707 0.05987 -10.30448 -1.60734 -0.14276 154.59468 -78.85208 -54.48886 12.74554 89.44429 2.14462 -6.23599 169.87504 77.79297 58.89019 10.73614 -76.15191 1.19529 8.15976 50.68901 -1.15048 -3.18222 -18.94794 -8.73851 -5.48629 -3.68915 53.45364 2.71608 6.15594 -24.34027 -8.54525 5.12368 3.4744
0.00036 6e-05 0.00026 537.46104 -45.80632 0.80002 57.73871 -0.27884 0.05965 -10.34784 -1.59537 -0.14221 154.74038 -78.85177 -54.38096 12.73236 89.44591 2.18887 -6.22948 169.87547 77.73435 59.15294 10.67931 -76.14609 1.24114 8.10871 50.69352 -1.23559 -3.68498 -18.94751 -8.68435 -5.45147 -3.66521 53.46593 2.72221 6.19312 -24.34047 -8.54159 5.12025 3.47223
0.00041 7e-05 0.0003 537.47288 -45.81078 0.7979 57.73335 -0.28694 0.0595 -10.39178 -1.58345 -0.14165 154.87837 -78.8528 -54.27758 12.71875 89.44717 2.23259 -6.22284 169.87399 77.67745 59.42097 10.62099 -76.14038 1.28779 8.05647 50.69779 -1.31977 -4.18188 -18.94711 -8.63085 -5.41706 -3.64154 53.47787 2.72858 6.2315 -24.34069 -8.53784 5.11677 3.46998
0.00045 7e-05 0.00034 537.48479 -45.81503 0.79581 57.72805 -0.295 0.05947 -10.43636 -1.57159 -0.14109 155.01449 -78.85482 -54.17612 12.705 89.44888 2.27551 -6.21603 169.87593 77.62146 59.69877 10.56132 -76.134 1.33522 8.00362 50.70179 -1.40285 -4.67194 -18.94673 -8.57816 -5.38316 -3.61822 53.48944 2.73521 6.27116 -24.34092 -8.53404 5.11327 3.4677
0.0005 8e-05 0.00038 537.49653 -45.82073 0.79357 57.72264 -0.3033 0.05883 -10.47706 -1.55937 -0.14054 155.18406 -78.84917 -54.05279 12.6932 89.45069 2.32255 -6.21017 169.87549 77.55663 59.93035 10.5108 -76.12903 1.37755 7.95682 50.70743 -1.4924 -5.20234 -18.94618 -8.52081 -5.34634 -3.59292 53.50332 2.74025 6.30291 -24.34105 -8.53072 5.11003 3.46576
0.00054 8e-05 0.00042 537.5085 -45.82323 0.79165 57.7173 -0.31109 0.05945 -10.52606 -1.54792 -0.14 155.2686 -78.86096 -53.98254 12.67658 89.45059 2.3612 -6.20231 169.869 77.51277 60.25294 10.44011 -76.12263 1.43102 7.89567 50.70954 -1.56818 -5.64694 -18.94603 -8.47331 -5.31569 -3.57181 53.5122 2.74872 6.35168 -24.34144 -8.52628 5.10616 3.46302
0.00056 7e-05 0.00046 537.52215 -45.81798 0.79052 57.71329 -0.31751 0.06379 -10.59723 -1.53859 -0.13937 155.20924 -78.91095 -54.00763 12.65079 89.45716 2.37134 -6.18988 169.88728 77.5099 60.84942 10.32026 -76.1047 1.51171 7.80517 50.70255 -1.60669 -5.85975 -18.94662 -8.45284 -5.30191 -3.56214 53.50831 2.76603 6.44419 -24.34222 -8.5197 5.10132 3.45857
0.00056 6e-05 0.00051 537.53587 -45.80931 0.78975 57.70906 -0.32344 0.06934 -10.67688 -1.52998 -0.13884 155.02957 -78.98024 -54.09884 12.61834 89.45837 2.3722 -6.1759 169.85787 77.53241 61.51074 10.17879 -76.09031 1.60376 7.69677 50.69196 -1.63131 -5.98581 -18.94771 -8.44225 -5.29432 -3.55669 53.49927 2.78678 6.55387 -24.34334 -8.5119 5.09576 3.45325
0.00057 5e-05 0.00056 537.54882 -45.80153 0.78884 57.70425 -0.3295 0.07422 -10.75305 -1.5211 -0.13826 154.86999 -79.04701 -54.18822 12.58762 89.45584 2.38332 -6.16124 169.86658 77.55253 62.15479 10.04341 -76.07468 1.69334 7.5921 50.6826 -1.66189 -6.14909 -18.94872 -8.42716 -5.28393 -3.54936 53.49189 2.80648 6.65822 -24.34449 -8.50398 5.08999 3.44794
0.00057 4e-05 0.00061 537.56473 -45.79659 0.78773 57.70258 -0.33581 0.07971 -10.82758 -1.5122 -0.13742 154.93167 -79.08742 -54.14431 12.56668 89.48445 2.37665 -6.14986 169.94539 77.52897 62.83826 9.9246 -76.04276 1.77338 7.5127 50.67477 -1.69378 -6.32119 -18.94892 -8.4122 -5.27349 -3.54191 53.48713 2.82448 6.75408 -24.3448 -8.49866 5.0863 3.4441
0.00059 3e-05 0.00065 537.5747 -45.78488 0.78728 57.694 -0.34167 0.08408 -10.90765 -1.50326 -0.13749 154.40933 -79.18731 -54.41162 12.51838 89.44055 2.39514 -6.13448 169.6918 77.60882 63.34117 9.76509 -76.0641 1.87374 7.368 50.66313 -1.71983 -6.45474 -18.95116 -8.39923 -5.26462 -3.53569 53.47599 2.84625 6.86929 -24.34705 -8.48794 5.07835 3.43719
0.00062 -1e-05 0.00069 537.56677 -45.75583 0.78736 57.66892 -0.34472 0.08603 -10.99891 -1.49605 -0.13718 153.13685 -79.44001 -55.34245 12.44624 89.25728 2.56747 -6.079 170.09119 77.90289 64.35241 9.50989 -76.05938 2.04369 7.12369 50.64015 -1.73161 -6.50008 -18.95718 -8.38982 -5.25871 -3.53191 53.44637 2.88282 7.05452 -24.35355 -8.45983 5.05659 3.42023
0.00067 -5e-05 0.00072 537.55326 -45.72014 0.78837 57.63626 -0.34769 0.08653 -11.09523 -1.4884 -0.13825 151.14191 -79.74851 -56.59945 12.34001 88.99363 2.74952 -6.02356 169.9096 78.30518 65.02312 9.21396 -76.13057 2.22856 6.8031 50.61404 -1.73829 -6.51012 -18.96568 -8.38197 -5.25415 -3.52918 53.41114 2.92212 7.25503 -24.36219 -8.42678 5.03096 3.40053
0.00073 -0.0001 0.00076 537.54314 -45.68701 0.7897 57.60564 -0.35174 0.08718 -11.19128 -1.47965 -0.14069 148.91023 -80.04175 -57.84811 12.21333 88.72324 2.87403 -5.98927 168.91682 78.70971 65.13523 8.92714 -76.29226 2.39861 6.46348 50.5901 -1.74829 -6.53847 -18.97402 -8.3731 -5.24888 -3.5259 53.37959 2.95667 7.43457 -24.3705 -8.39785 5.00862 3.38331
0.00074 -0.00013 0.00079 537.52897 -45.65514 0.78773 57.58162 -0.35115 0.09044 -11.28149 -1.47642 -0.13504 148.99148 -80.31206 -58.5835 12.2277 88.62083 3.22492 -5.8716 172.28503 78.92735 68.1199 8.67263 -75.9662 2.61167 6.3373 50.56176 -1.75353 -6.55465 -18.97779 -8.36592 -5.24423 -3.52311 53.34213 3.00598 7.67279 -24.37604 -8.36118 4.97994 3.36097
0.00084 -0.00019 0.00083 537.52249 -45.61979 0.79308 57.5412 -0.36049 0.0874 -11.38193 -1.46155 -0.14616 144.17116 -80.61923 -60.3705 11.95341 88.16769 3.1037 -5.92004 166.65432 79.52283 65.2171 8.34972 -76.62407 2.72767 5.76448 50.5433 -1.76771 -6.58837 -18.99229 -8.35542 -5.23853 -3.51949 53.3169 3.02539 7.79358 -24.38797 -8.33921 4.96335 3.34848
0.00112 -0.00032 0.00088 537.53335 -45.57063 0.81634 57.46411 -0.39472 0.07185 -11.53392 -1.4148 -0.20671 125.25815 -81.21736 -65.8105 10.77635 86.60344 1.70826 -6.49303 134.3967 81.44897 44.59804 7.77566 -80.42075 2.67044 3.8387 50.54087 -1.80752 -6.68507 -19.03031 -8.33555 -5.22947 -3.51315 53.31669 2.95982 7.57447 -24.416 -8.36133 4.98279 3.36534
0.00149 -0.00048 0.00094 537.55294 -45.51931 0.84723 57.36919 -0.43941 0.0493 -11.69052 -1.35622 -0.28346 101.57912 -81.81155 -72.15871 9.3304 84.71487 -0.16396 -7.22143 93.45263 83.69203 18.34107 7.1469 -85.131 2.50052 1.49012 50.55076 -1.85663 -6.80052 -19.08003 -8.31217 -5.21925 -3.50593 53.33084 2.86453 7.23896 -24.45056 -8.398 5.0142 3.39192
0.00184 -0.00064 0.00099 537.57217 -45.47283 0.87611 57.27844 -0.48099 0.02683 -11.83003 -1.30302 -0.35048 80.5591 -82.27589 -77.52656 8.0835 83.08689 -1.84459 -7.83478 57.75608 85.58518 -4.30809 6.59172 -89.12371 2.31257 -0.57176 50.56292 -1.90174 -6.90324 -19.12801 -8.29027 -5.20967 -3.49925 53.3451 2.78381 6.96422 -24.48284 -8.42653 5.039 3.41307
0.0021 -0.00077 0.00105 537.57666 -45.40986 0.89926 57.2054 -0.51565 0.0169 -12.03672 -1.25012 -0.42743 57.41509 -83.30264 -85.23554 6.51461 80.99647 -3.43785 -8.63346 16.58773 88.35488 -31.33321 5.83289 -94.36182 2.40127 -3.02793 50.54174 -1.94569 -7.02021 -19.16108 -8.26903 -5.19986 -3.4921 53.3313 2.69813 6.65604 -24.51241 -8.46135 5.06863 3.43844
0.00257 -0.00095 0.00109 537.61316 -45.38078 0.93566 57.0896 -0.56716 -0.02017 -12.0999 -1.19337 -0.48768 37.59405 -83.15043 -88.36335 5.5484 79.77036 -5.30277 -9.08583 -15.28471 89.36824 -50.64144 5.4814 -97.26428 1.90714 -4.77177 50.59298 -1.99432 -7.11521 -19.22781 -8.24541 -5.19002 -3.48558 53.37926 2.6164 6.39059 -24.54899 -8.48657 5.09107 3.45734
0.00355 -0.00131 0.00108 537.74259 -45.44593 1.01094 56.8745 -0.66292 -0.13521 -11.80428 -1.1326 -0.49654 27.93963 -79.79457 -77.90139 6.35051 81.21087 -8.00726 -8.52077 -18.95647 85.4938 -46.7215 6.30954 -93.12563 -0.34634 -4.36191 50.841 -2.05344 -7.12012 -19.38595 -8.21765 -5.18205 -3.48227 53.59533 2.54674 6.26342 -24.60453 -8.48201 5.09109 3.4561
0.00473 -0.00171 0.00104 537.90242 -45.54511 1.09847 56.61401 -0.77516 -0.27602 -11.35643 -1.06769 -0.48826 21.83157 -75.24421 -62.93327 7.76039 83.49764 -10.9324 -7.60699 -13.04339 79.83561 -34.94607 7.54433 -86.67121 -3.15124 -3.23503 51.1614 -2.11685 -7.1062 -19.5773 -8.18742 -5.17378 -3.47941 53.87263 2.48318 6.18454 -24.66663 -8.46737 5.08346 3.44803
0.00583 -0.00209 0.001 538.04435 -45.62891 1.17775 56.36533 -0.87971 -0.40244 -10.95343 -1.00218 -0.48867 14.21692 -71.20495 -50.49278 8.86836 85.26293 -13.61868 -6.86695 -11.78533 74.96415 -27.11147 8.56299 -81.52052 -5.58504 -2.49156 51.44899 -2.17858 -7.1185 -19.75254 -8.15719 -5.1645 -3.47546 54.12149 2.4209 6.08907 -24.72493 -8.45709 5.07908 3.44297
0.0069 -0.00249 0.00098 538.20502 -45.71298 1.26888 56.1546 -0.9857 -0.54213 -10.65497 -0.94662 -0.48586 5.98662 -67.29286 -36.04512 10.07972 87.58542 -16.89783 -6.06441 -9.57891 70.19376 -17.88278 9.70231 -75.34899 -8.52405 -1.52285 51.73722 -2.24004 -7.06054 -19.93244 -8.13121 -5.1599 -3.47507 54.3744 2.34065 5.96766 -24.78701 -8.44787 5.07593 3.4385
0.00808 -0.00285 0.00093 538.33226 -45.80371 1.33782 55.85261 -1.09221 -0.65807 -10.10047 -0.86967 -0.48547 -0.0504 -62.84074 -24.71308 11.21824 88.9643 -18.9994 -5.31161 -6.94451 64.79891 -9.65057 10.69969 -70.73153 -10.54963 -0.8438 52.04045 -2.30226 -7.13961 -20.11045 -8.09631 -5.14566 -3.46755 54.63201 2.29947 5.91235 -24.84257 -8.43433 5.06843 3.43122
0.00953 -0.0031 0.00076 538.37118 -45.91249 1.34433 55.32456 -1.19818 -0.72008 -8.89436 -0.73278 -0.49576 -0.92674 -57.11936 -22.92101 12.05546 87.43513 -17.69892 -4.74254 -5.54328 57.9996 -5.78788 11.10621 -71.05415 -9.83839 -1.1678 52.37371 -2.37127 -7.642 -20.27453 -8.03335 -5.10321 -3.43883 54.89817 2.36743 6.03648 -24.87945 -8.40725 5.04907 3.41622
0.01108 -0.00329 0.00057 538.37229 -46.02545 1.32719 54.70389 -1.30356 -0.75376 -7.43291 -0.57461 -0.50901 0.31171 -50.91115 -24.43396 12.79173 84.94959 -15.22262 -4.24166 -3.98357 50.65679 -3.22535 11.37733 -72.99885 -8.20449 -1.79945 52.71859 -2.43956 -8.27598 -20.43571 -7.96225 -5.05119 -3.40307 55.16499 2.47471 6.22466 -24.90926 -8.37684 5.02583 3.39884
0.01259 -0.0035 0.00039 538.38436 -46.13111 1.32027 54.11559 -1.40799 -0.78878 -6.07576 -0.42789 -0.52097 0.62376 -44.96908 -24.55362 13.54242 82.9622 -13.34377 -3.7348 -2.40882 43.63356 -0.24119 11.77254 -74.14479 -7.04294 -2.27153 53.05362 -2.50462 -8.82236 -20.59845 -7.8976 -5.00487 -3.3716 55.42436 2.56165 6.37807 -24.94178 -8.35058 5.00548 3.38357
